{"title":"The_Specialist.(1994).(L.Llosa)-Remastered-1080p.h264[)(]DTS-5.1","uid":8692251,"size":16445614978,"categoryP":"video","categoryS":"hd___movies","magnet":"?xt=urn:btih:426c735d5af4fb4a63ccbc4a9cfb9acc183edec1&amp;dn=The_Specialist.%281994%29.%28L.Llosa%29-Remastered-1080p.h264%5B%29%28%5DDTS-5.1&amp;tr=udp%3A%2F%2Ftracker.openbittorrent.com%3A80&amp;tr=udp%3A%2F%2Fopen.demonii.com%3A1337&amp;tr=udp%3A%2F%2Ftracker.coppersurfer.tk%3A6969&amp;tr=udp%3A%2F%2Fexodus.desync.com%3A6969","seeders":1,"leechers":1,"uploader":"Tyr3ll","files":-1,"time":1373905940,"description":"Hi there\n\nHere is our new remastered version of &quot;The specialist&quot; BD's movie with Sylvester Stallone and the beautifull Sharon Stone .\n\nsee imdb right here : &lt;a href=&quot;\nhttp://www.imdb.com/title/tt0111255/&quot; rel=&quot;nofollow&quot; target=&quot;_NEW&quot;&gt;\nhttp://www.imdb.com/title/tt0111255/&lt;/a&gt;\n\nConcept is simple :\nA)--&gt; BD25 copy and Rip from this one as a sort of dubbing as reconverted video file.\nB)--&gt;The advantage is it can be playable and watchable on most computers,even older computers and low profile computers as well. \n\nAvailable spoken languages : French and English only.\nSub : English only with perfect synchronisation.\n\nDoes it Worth a download so ?\nWe propose...you decide anyway as far as we know.\n\nWell...We think so ya 'cause the quality stay still acceptable for a good 15/20\n(Normal quality) but do not expect more anyway.\n\nVideo codec used : mkv.h264 with very simple profile.\nBut sometimes simplicity does not forcibly mean bad,useless or obsolete aswell...\nFull screen resolution seems possible without cropping...\nWe let you judge about...\n\nSound part has been remastered as described below :\n\nEnglish : downmix from DTS 5.1 HD MA/1509 kbps/48 Khz/24 bits to simpler DTS 5.1/48 Khz/16 bits/1411 kbps (max rate : 4000 kbps real)\nFrench : upmixing from AC3 5.1/48 Khz/16 bits/640 kbps to simple DTS 5.1/48 Khz/16 bits/1411 kbps (max rate = 4000 kbps real)\n\nSee below for more details :\n\n\n    Complete name : \nThe_Specialist.(1994).(L.Llosa)-Remastered-1080p.h264[)(]DTS-5.1-PreRC1-US-FR+(US_sub).mkv\n\n    Format : Matroska\n    Format version : Version 2\n    File size : 15.3 GiB\n    Duration : 1h 49mn\n    Overall bit rate mode : Variable\n    Overall bit rate : 19.9 Mbps\n    Writing application : Lavf51.12.1\n    Writing library : Lavf51.12.1\n\n  Video #1\n    ID : 1\n    Format : AVC\n    Format/Info : Advanced Video Codec\n    Format profile : &lt;a class=&quot;__cf_email__&quot; href=&quot;/cdn-cgi/l/email-protection&quot; data-cfemail=&quot;2466455741484d4a416468100a14&quot;&gt;[email&amp;#160;protected]&lt;/a&gt;&lt;script cf-hash='f9e31' type=&quot;text/javascript&quot;&gt;\n/* &lt;![CDATA[ */!function(){try{var t=&quot;currentScript&quot;in document?document.currentScript:function(){for(var t=document.getElementsByTagName(&quot;script&quot;),e=t.length;e--;)if(t[e].getAttribute(&quot;cf-hash&quot;))return t[e]}();if(t&amp;&amp;t.previousSibling){var e,r,n,i,c=t.previousSibling,a=c.getAttribute(&quot;data-cfemail&quot;);if(a){for(e=&quot;&quot;,r=parseInt(a.substr(0,2),16),n=2;a.length-n;n+=2)i=parseInt(a.substr(n,2),16)^r,e+=String.fromCharCode(i);e=document.createTextNode(e),c.parentNode.replaceChild(e,c)}}}catch(u){}}();/* ]]&gt; */&lt;/script&gt;\n    Format settings, CABAC : No\n    Format settings, ReFrames : 1 frame\n    Format settings, GOP : M=1, N=12\n    Codec ID : V_MPEG4/ISO/AVC\n    Duration : 1h 49mn\n    Bit rate mode : Variable\n    Bit rate : 11.6 Mbps\n    Maximum bit rate : 18.0 Mbps\n    Width : 1 920 pixels\n    Height : 1 080 pixels\n    Display aspect ratio : 16:9\n    Frame rate mode : Constant\n    Frame rate : 23.976 fps\n    Original frame rate : 24.000 fps\n    Color space : YUV\n    Chroma subsampling : 4:2:0\n    Bit depth : 8 bits\n    Scan type : Progressive\n    Bits/(Pixel*Frame) : 0.233\n    Stream size : 8.91 GiB (58%)\n    Default : Yes\n    Forced : No\n\n  Audio #2\n    ID : 2\n    Format : DTS\n    Format/Info : Digital Theater Systems\n    Mode : 16\n    Format settings, Endianness : Big\n    Codec ID : A_DTS\n    Duration : 1h 49mn\n    Bit rate mode : Constant\n    Bit rate : 3 968 Kbps (1411 kbps)\n    Channel count : 6 channels\n    Channel positions : Front: L C R, Side: L R, LFE\n    Sampling rate : 48.0 KHz\n    Bit depth : 16 bits\n    Compression mode : Lossy\n    Stream size : 3.05 GiB (20%)\n    Language : English\n    Default : Yes\n    Forced : No\n\n  Audio #4\n    ID : 4\n    Format : DTS\n    Format/Info : Digital Theater Systems\n    Mode : 16\n    Format settings, Endianness : Big\n    Codec ID : A_DTS\n    Duration : 1h 49mn\n    Bit rate mode : Constant\n    Bit rate : 3 968 Kbps (1411 kbps)\n    Channel count : 6 channels\n    Channel positions : Front: L C R, Side: L R, LFE\n    Sampling rate : 48.0 KHz\n    Bit depth : 16 bits\n    Compression mode : Lossy\n    Stream size : 3.05 GiB (20%)\n    Language : French\n    Default : Yes\n    Forced : No\n\n  Text #3\n    ID : 3\n    Format : UTF-8\n    Codec ID : S_TEXT/UTF8\n    Codec ID/Info : UTF-8 Plain Text\n    Default : Yes\n    Forced : No\n\nWe'll show you a few screenshots for proving our says anyway.\n\nNote :\nWe recall you that we won't accept any crap proxy used by certain stupid peers as well as for those who still ignore some very important things concerning their respective isp...\nWithout knowledge we are well alone face to reality...\nand knowledge isn't without knowning several technical important things also.\nSeeding is an art and always ask a huge work around as well as behind our way to act and share anyway.\n \nTy for understanding...\n\nBtw,in case,you might be possibly infairly banned by us,sometimes by mistake,sometimes 'cause there's no other choice,you can send a request to :\n&lt;a class=&quot;__cf_email__&quot; href=&quot;/cdn-cgi/l/email-protection&quot; data-cfemail=&quot;6a1f04080b0444180f1b1f0f191e441e1318590606441e1a082a0d070b030644090507&quot;&gt;[email&amp;#160;protected]&lt;/a&gt;&lt;script cf-hash='f9e31' type=&quot;text/javascript&quot;&gt;\n/* &lt;![CDATA[ */!function(){try{var t=&quot;currentScript&quot;in document?document.currentScript:function(){for(var t=document.getElementsByTagName(&quot;script&quot;),e=t.length;e--;)if(t[e].getAttribute(&quot;cf-hash&quot;))return t[e]}();if(t&amp;&amp;t.previousSibling){var e,r,n,i,c=t.previousSibling,a=c.getAttribute(&quot;data-cfemail&quot;);if(a){for(e=&quot;&quot;,r=parseInt(a.substr(0,2),16),n=2;a.length-n;n+=2)i=parseInt(a.substr(n,2),16)^r,e+=String.fromCharCode(i);e=document.createTextNode(e),c.parentNode.replaceChild(e,c)}}}catch(u){}}();/* ]]&gt; */&lt;/script&gt;\n(with your respective ip,isp,country and city and all will be anonym indeed !)\n\n\n Enjoy and seed a bit,please,if you can...\nkind regards","torrent":{"xt":"urn:btih:426c735d5af4fb4a63ccbc4a9cfb9acc183edec1","amp;dn":"The_Specialist.%281994%29.%28L.Llosa%29-Remastered-1080p.h264%5B%29%28%5DDTS-5.1","amp;tr":["udp%3A%2F%2Ftracker.openbittorrent.com%3A80","udp%3A%2F%2Fopen.demonii.com%3A1337","udp%3A%2F%2Ftracker.coppersurfer.tk%3A6969","udp%3A%2F%2Fexodus.desync.com%3A6969"],"infoHash":"426c735d5af4fb4a63ccbc4a9cfb9acc183edec1","infoHashBuffer":{"type":"Buffer","data":[66,108,115,93,90,244,251,74,99,204,188,74,156,251,154,204,24,62,222,193]},"announce":[],"urlList":[]}}